<svg width="194" height="76" viewBox="0 0 194 76" fill="none" xmlns="http://www.w3.org/2000/svg">
<path d="M49.557 46.5443C52.2911 42.3291 54 37.2025 54 31.7342C54 30.2532 53.8861 28.7722 53.6582 27.4051C53.3165 24.3291 51.038 22.8481 49.3291 22.8481C46.9367 22.8481 44.7722 24.7848 45.3418 29C45.4557 29.9114 45.5696 30.9367 45.5696 31.8481C45.4557 42.1013 36.9114 50.4177 26.6582 50.1899C16.6329 49.962 8.43038 41.7595 8.43038 31.6203C8.43038 26.8354 10.2532 22.3924 13.3291 19.0886C13.3291 19.0886 15.7215 16.8101 15.7215 15.2152C15.7215 12.9367 13.7848 11 11.3924 11C10.3671 11 9.11392 11.4557 8.08861 12.481C3.07595 17.3797 0 24.2152 0 31.6203C0 46.3165 11.6203 58.2785 26.0886 58.7342H27.5696C41.5823 58.8481 46.5949 65.7975 46.5949 65.7975C44.0886 56.3418 47.7342 49.3924 49.1013 47.2278C49.2152 47 49.443 46.7722 49.557 46.5443Z" fill="white"/>
<path d="M27 20.6835C20.962 20.6835 16.0633 25.5823 16.0633 31.6203C16.0633 37.6582 20.962 42.557 27 42.557C33.038 42.557 37.9367 37.6582 37.9367 31.6203C37.9367 25.5823 33.038 20.6835 27 20.6835ZM30.6456 32.076L25.1772 35.6076C24.9494 35.7215 24.7215 35.6076 24.7215 35.3798L24.6076 28.0886C24.6076 27.8608 24.8354 27.6329 25.0633 27.8608L30.6456 31.5063C30.8734 31.6203 30.8734 31.962 30.6456 32.076Z" fill="white"/>
<path d="M68.4375 9.25V70H63.9375V9.25H68.4375ZM78 16V66.625H82.5V70H73.5V16H78ZM89.25 16V66.625H93.75V70H84.75V16H89.25ZM103.875 16H108.375V64.9375C108.375 65.9219 108.199 66.7773 107.848 67.5039C107.496 68.207 107.027 68.793 106.441 69.2617C105.855 69.707 105.188 70.0352 104.438 70.2461C103.711 70.457 102.961 70.5625 102.188 70.5625C101.414 70.5625 100.652 70.457 99.9023 70.2461C99.1758 70.0352 98.5195 69.707 97.9336 69.2617C97.3477 68.793 96.8789 68.207 96.5273 67.5039C96.1758 66.7773 96 65.9219 96 64.9375V16H100.5V64.9375C100.5 65.7812 100.676 66.3672 101.027 66.6953C101.379 67.0234 101.766 67.1875 102.188 67.1875C102.609 67.1875 102.996 67.0234 103.348 66.6953C103.699 66.3672 103.875 65.7812 103.875 64.9375V16ZM124.652 16H128.625V70H124.688V37.375L121.629 67.75H119.871L116.812 37.375V70H112.875V16H116.848L120.75 48.625L124.652 16ZM138.188 16V70H133.688V16H138.188ZM156.75 70H153.375L147.188 38.5V70H143.25V16H146.625L152.848 48.625V16H156.75V70ZM174.75 64.9375C174.75 65.9219 174.562 66.7773 174.188 67.5039C173.836 68.207 173.355 68.793 172.746 69.2617C172.137 69.7305 171.445 70.0703 170.672 70.2812C169.898 70.5156 169.102 70.6328 168.281 70.6328C167.414 70.6328 166.559 70.5039 165.715 70.2461C164.871 70.0117 164.121 69.6602 163.465 69.1914C162.809 68.6992 162.27 68.1016 161.848 67.3984C161.449 66.6719 161.25 65.8516 161.25 64.9375V21.0625C161.25 20.1719 161.449 19.3867 161.848 18.707C162.27 18.0039 162.809 17.418 163.465 16.9492C164.145 16.4805 164.906 16.1289 165.75 15.8945C166.594 15.6367 167.449 15.5078 168.316 15.5078C169.137 15.5078 169.934 15.625 170.707 15.8594C171.48 16.0703 172.16 16.4102 172.746 16.8789C173.355 17.3242 173.836 17.8984 174.188 18.6016C174.562 19.3047 174.75 20.125 174.75 21.0625V64.9375ZM170.25 21.0625C170.25 20.2656 170.051 19.7031 169.652 19.375C169.277 19.0234 168.832 18.8477 168.316 18.8477C168.012 18.8477 167.707 18.9063 167.402 19.0234C167.098 19.1172 166.816 19.2695 166.559 19.4805C166.324 19.668 166.125 19.9023 165.961 20.1836C165.82 20.4414 165.75 20.7344 165.75 21.0625V64.9375C165.75 65.2656 165.82 65.5703 165.961 65.8516C166.125 66.1328 166.324 66.3672 166.559 66.5547C166.816 66.7422 167.086 66.8945 167.367 67.0117C167.672 67.1055 167.977 67.1523 168.281 67.1523C168.797 67.1523 169.254 66.9883 169.652 66.6602C170.051 66.3086 170.25 65.7344 170.25 64.9375V21.0625ZM191.625 35.125H187.125V21.0625C187.125 20.2188 186.949 19.6328 186.598 19.3047C186.246 18.9766 185.859 18.8125 185.438 18.8125C185.016 18.8125 184.629 18.9766 184.277 19.3047C183.926 19.6328 183.75 20.2188 183.75 21.0625C183.75 23.5703 183.867 25.8789 184.102 27.9883C184.336 30.0977 184.641 32.043 185.016 33.8242C185.391 35.6055 185.812 37.2344 186.281 38.7109C186.75 40.1641 187.219 41.5 187.688 42.7188C188.062 43.6797 188.473 44.793 188.918 46.0586C189.387 47.3242 189.82 48.8359 190.219 50.5938C190.617 52.3516 190.945 54.4023 191.203 56.7461C191.484 59.0898 191.625 61.8203 191.625 64.9375C191.625 65.9219 191.449 66.7773 191.098 67.5039C190.746 68.207 190.277 68.793 189.691 69.2617C189.105 69.707 188.438 70.0352 187.688 70.2461C186.961 70.457 186.211 70.5625 185.438 70.5625C184.664 70.5625 183.902 70.457 183.152 70.2461C182.426 70.0352 181.77 69.707 181.184 69.2617C180.598 68.793 180.129 68.207 179.777 67.5039C179.426 66.7773 179.25 65.9219 179.25 64.9375V50.875H183.75V64.9375C183.75 65.7812 183.926 66.3672 184.277 66.6953C184.629 67.0234 185.016 67.1875 185.438 67.1875C185.859 67.1875 186.246 67.0234 186.598 66.6953C186.949 66.3672 187.125 65.7812 187.125 64.9375C187.125 61.9141 186.973 59.2656 186.668 56.9922C186.387 54.6953 186.023 52.6797 185.578 50.9453C185.133 49.1875 184.641 47.6523 184.102 46.3398C183.586 45.0273 183.105 43.8203 182.66 42.7188C182.215 41.6406 181.781 40.4102 181.359 39.0273C180.961 37.6445 180.598 36.0742 180.27 34.3164C179.965 32.5586 179.719 30.5898 179.531 28.4102C179.344 26.207 179.25 23.7578 179.25 21.0625C179.25 20.0781 179.426 19.2344 179.777 18.5312C180.129 17.8281 180.598 17.2539 181.184 16.8086C181.77 16.3398 182.426 16 183.152 15.7891C183.902 15.5547 184.664 15.4375 185.438 15.4375C186.211 15.4375 186.961 15.5547 187.688 15.7891C188.438 16 189.105 16.3398 189.691 16.8086C190.277 17.2539 190.746 17.8281 191.098 18.5312C191.449 19.2344 191.625 20.0781 191.625 21.0625V35.125Z" fill="white"/>
</svg>
